<?xml version="1.0" encoding="UTF-8"?>
<!DOCTYPE svg PUBLIC "-//W3C//DTD SVG 1.1//EN" "http://www.w3.org/Graphics/SVG/1.1/DTD/svg11.dtd">
<!-- Creator: CorelDRAW -->
<svg xmlns="http://www.w3.org/2000/svg" xml:space="preserve" width="100mm" height="100mm" version="1.1" style="shape-rendering:geometricPrecision; text-rendering:geometricPrecision; image-rendering:optimizeQuality; fill-rule:evenodd; clip-rule:evenodd"
viewBox="0 0 10000 10000"
 xmlns:xlink="http://www.w3.org/1999/xlink"
 xmlns:xodm="http://www.corel.com/coreldraw/odm/2003">
 <defs>
  <style type="text/css">
   <![CDATA[
    .fil0 {fill:#FEFEFE}
   ]]>
  </style>
 </defs>
 <g id="Слой_x0020_1">
  <metadata id="CorelCorpID_0Corel-Layer"/>
  <g id="_1772659749632">
   <path class="fil0" d="M5511.07 7723.89c-1418.13,0 -2836.25,0 -4254.37,0 -220.02,0 -509.26,-30.84 -668.05,44.22 -414.84,196.1 -374.04,765.17 -6.41,938.25 164.26,77.33 414.62,57.05 655.21,57.05l4273.62 0c143.3,270.84 183.7,454.02 525,707.03 561.3,416.11 1303.17,419.12 1859.53,2.72 114.43,-85.64 222.37,-193.59 308.01,-308.01 66,-88.19 187.4,-286.36 214.28,-401.74 245.56,0 554.34,26.94 758.21,-31.06 443.84,-126.28 512.31,-805.78 10.27,-987.67 -142.47,-51.62 -573.9,-20.79 -768.48,-20.79 -111.58,-478.97 -632.35,-897.74 -1152.77,-1003.28 -433.91,-88 -879.62,15.95 -1226.51,279.53 -218.45,166 -469.56,474.88 -527.54,723.75z"/>
   <path class="fil0" d="M5511.07 1140.21l-4273.62 0c-240.59,0 -490.95,-20.27 -655.21,57.06 -370.43,174.39 -400.83,738.1 -6.58,931.99 166.54,81.91 461.77,50.47 661.79,50.47 1424.54,0 2849.07,0 4273.62,0 25.38,108.97 151.99,322.23 211.46,404.56l223.08 238.93c307.84,239.91 590.88,386.82 1009.78,396.77 135.15,3.21 393.96,-48.04 521.83,-94.38 313.43,-113.58 520.69,-278.62 723.14,-528.14 79.42,-97.89 185.85,-281.73 217.53,-417.74 194.58,0 626.01,30.83 768.48,-20.79 497.98,-180.42 433.24,-847.84 4.56,-983.25 -194.98,-61.6 -518.39,-35.48 -773.04,-35.48 -56.02,-240.47 -317.97,-556.82 -522.29,-709.74 -557.33,-417.12 -1298.43,-413.25 -1859.53,2.71 -341.3,253.02 -381.7,436.2 -525,707.03z"/>
   <path class="fil0" d="M2642.73 4432.05c-474.84,0 -949.68,0 -1424.53,0 -237.75,0 -495.89,-23.85 -654.12,58.15 -341.52,176.96 -384.76,723.5 5.31,917.92 185.26,92.33 386.64,63.45 648.81,63.45 474.85,0 949.69,0 1424.53,0 118.92,510.39 787.49,1020.28 1366.8,1020.28 428.4,0 691.55,-62.1 1039.92,-326.86 111.41,-84.67 206.64,-189.91 291.39,-305.39 133.77,-182.3 120.75,-204.66 208.73,-388.03l3349.65 0.06c788.07,3.01 720.09,-706.71 456.9,-919.02 -113.64,-91.66 -233.98,-121.79 -437.58,-120.69l-3368.97 0.13c-103.29,-215.26 -51.53,-151.98 -200.06,-377.47 -227.59,-345.54 -732.84,-642.81 -1147.48,-642.81 -448.87,0 -724.12,54.83 -1061.44,324.6 -199.67,159.7 -437.08,434.79 -497.86,695.68z"/>
  </g>
 </g>
</svg>
