<?xml version="1.0" encoding="utf-8"?>
<!-- Generator: Adobe Illustrator 23.0.6, SVG Export Plug-In . SVG Version: 6.00 Build 0)  -->
<svg version="1.1" id="Слой_1" xmlns="http://www.w3.org/2000/svg" xmlns:xlink="http://www.w3.org/1999/xlink" x="0px" y="0px"
	 viewBox="0 0 30 30" style="enable-background:new 0 0 30 30;" xml:space="preserve">
<style type="text/css">
	.st0{fill-rule:evenodd;clip-rule:evenodd;fill:#FFFFFF;}
</style>
<path class="st0" d="M0.5,7.3c0,2.1,2.2,6.3,3.4,8.4l2.4,3.5c2.2,2.6,5.3,4.8,8.9,4.8c2.2,0,2.2-0.5,2.2-1.8c0-0.7,0-1.3,0-2
	c0-1.4,0-1.4,0.9-1.4c1,0,3.2,2.1,3.8,2.8l0.7,0.8c0.1,0.2,0.2,0.2,0.4,0.4c0.4,0.4,0.9,1.2,1.7,1.2h3.6c0.7,0,1-0.4,1-1
	c0-0.6-0.7-1.6-1-2l-2.1-2.5c-2-2.2-2.7-2-1.5-3.7l0.7-1c0.4-0.7,0.9-1.3,1.3-2c0.6-1,2.1-3.3,2.1-4.5c0-0.5-0.5-0.7-1-0.7h-3.1
	c-1,0-1.3,0.7-1.6,1.4c-0.2,0.4-0.3,0.7-0.5,1.1l-1.1,2c-0.2,0.3-0.4,0.6-0.6,1c-0.4,0.6-2.4,3.5-3.1,2.8c-0.3-0.3-0.3-0.8-0.3-1.3
	V8.8c0-1,0.2-2.3-0.8-2.3h-5.2c-0.5,0-1.1,0.6-0.3,1.5c0.5,0.6,0.9,1.4,0.9,2.2c0,0.8,0.1,5.3-0.1,5.8c-0.3,0.8-1.3-0.3-1.6-0.5
	c-0.7-0.8-1.9-2.8-2.4-3.7C6.9,9.8,6.8,9.3,6.1,7.4C5.9,7,5.6,6.5,5,6.5H1.3C0.8,6.5,0.5,6.8,0.5,7.3L0.5,7.3z"/>
</svg>
