<svg xmlns="http://www.w3.org/2000/svg" xml:space="preserve" width="210mm" height="297mm" style="shape-rendering:geometricPrecision;text-rendering:geometricPrecision;image-rendering:optimizeQuality;fill-rule:evenodd;clip-rule:evenodd" viewBox="0 0 21000 29700"><path d="M8679.61 16020.3v-5008.82c208.23 48.51 4208.78 2422.45 4409.17 2469.14v70.54c-181.11 42.2-2800.95 1595.83-3292.15 1857.77-196.84 104.96-991.88 582.21-1117.02 611.37zm-6843.04-3174.6 70.61 2998.17c40.04 831.02 194.03 2157.49 766.61 2725.46 787.23 780.9 1417.37 744.51 2652.76 839.3l1238.06 67.05c195.91 2.4 224.54 35.67 420.47 38.09 1133.6 14 2288.96 69.14 3422.92 69.14 1134.89 0 2290.1-67.77 3422.72-69.34 193.83-.27 226.92-28.03 386.63-36.65 136.93-7.39 286.66 5.43 424.61 1.32 178.26-5.31 195.03-36.1 385.55-37.73 463.92-3.96 1610.51-126.41 2009.77-212.45 899.99-193.94 1481.68-927.73 1663.27-1828.79 379.76-1884.28 390.52-5829.09 0-7766.76-96.1-476.84-267.91-881.96-558.34-1170.06-838.96-832.21-1498.79-718.54-2649.59-842.47-508.66-54.78-804.16-41.59-1240-65.12-1259.05-67.94-2575.14-105.99-3844.62-105.99-1133.96 0-2289.32 55.14-3422.92 69.14-190.16 2.35-207.84 32.53-385.45 37.84-139.29 4.16-285.85-4.29-425.84-2.56l-1627.52 136.15c-854.32 95.82-1249.74 158.08-1854.63 755.59-605.32 597.94-712.18 1808.58-782.56 2709.5-43.53 557.2-72.51 1109.8-72.51 1691.17z" style="fill:white"/></svg>